<svg xmlns="http://www.w3.org/2000/svg" version="1.1" xmlns:xlink="http://www.w3.org/1999/xlink" xmlns:svgjs="http://svgjs.com/svgjs" width="1440" height="560" preserveAspectRatio="none" viewBox="0 0 1440 560"><g mask="url(&quot;#SvgjsMask1004&quot;)" fill="none"><path d="M223.43 320.2L288.38 357.7L288.38 432.7L223.43 470.2L158.48 432.7L158.48 357.7zM158.48 432.7L223.43 470.2L223.43 545.2L158.48 582.7L93.52 545.2L93.52 470.2zM353.34 95.2L418.29 132.7L418.29 207.7L353.34 245.2L288.38 207.7L288.38 132.7zM288.38 432.7L353.34 470.2L353.34 545.2L288.38 582.7L223.43 545.2L223.43 470.2zM418.29 -17.3L483.25 20.2L483.25 95.2L418.29 132.7L353.34 95.2L353.34 20.2zM418.29 432.7L483.25 470.2L483.25 545.2L418.29 582.7L353.34 545.2L353.34 470.2zM548.2 432.7L613.15 470.2L613.15 545.2L548.2 582.7L483.25 545.2L483.25 470.2zM872.97 95.2L937.92 132.7L937.92 207.7L872.97 245.2L808.01 207.7L808.01 132.7zM872.97 545.2L937.92 582.7L937.92 657.7L872.97 695.2L808.01 657.7L808.01 582.7zM1067.83 432.7L1132.78 470.2L1132.78 545.2L1067.83 582.7L1002.88 545.2L1002.88 470.2zM1392.6 95.2L1457.55 132.7L1457.55 207.7L1392.6 245.2L1327.64 207.7L1327.64 132.7zM1327.64 207.7L1392.6 245.2L1392.6 320.2L1327.64 357.7L1262.69 320.2L1262.69 245.2zM1522.51 95.2L1587.46 132.7L1587.46 207.7L1522.51 245.2L1457.55 207.7L1457.55 132.7zM1522.51 320.2L1587.46 357.7L1587.46 432.7L1522.51 470.2L1457.55 432.7L1457.55 357.7z" stroke="rgba(232, 90, 79, 1)" stroke-width="2"></path><path d="M215.93 320.2 a7.5 7.5 0 1 0 15 0 a7.5 7.5 0 1 0 -15 0zM280.88 357.7 a7.5 7.5 0 1 0 15 0 a7.5 7.5 0 1 0 -15 0zM280.88 432.7 a7.5 7.5 0 1 0 15 0 a7.5 7.5 0 1 0 -15 0zM215.93 470.2 a7.5 7.5 0 1 0 15 0 a7.5 7.5 0 1 0 -15 0zM150.98 432.7 a7.5 7.5 0 1 0 15 0 a7.5 7.5 0 1 0 -15 0zM150.98 357.7 a7.5 7.5 0 1 0 15 0 a7.5 7.5 0 1 0 -15 0zM215.93 545.2 a7.5 7.5 0 1 0 15 0 a7.5 7.5 0 1 0 -15 0zM150.98 582.7 a7.5 7.5 0 1 0 15 0 a7.5 7.5 0 1 0 -15 0zM86.02 545.2 a7.5 7.5 0 1 0 15 0 a7.5 7.5 0 1 0 -15 0zM86.02 470.2 a7.5 7.5 0 1 0 15 0 a7.5 7.5 0 1 0 -15 0zM345.84 95.2 a7.5 7.5 0 1 0 15 0 a7.5 7.5 0 1 0 -15 0zM410.79 132.7 a7.5 7.5 0 1 0 15 0 a7.5 7.5 0 1 0 -15 0zM410.79 207.7 a7.5 7.5 0 1 0 15 0 a7.5 7.5 0 1 0 -15 0zM345.84 245.2 a7.5 7.5 0 1 0 15 0 a7.5 7.5 0 1 0 -15 0zM280.88 207.7 a7.5 7.5 0 1 0 15 0 a7.5 7.5 0 1 0 -15 0zM280.88 132.7 a7.5 7.5 0 1 0 15 0 a7.5 7.5 0 1 0 -15 0zM345.84 470.2 a7.5 7.5 0 1 0 15 0 a7.5 7.5 0 1 0 -15 0zM345.84 545.2 a7.5 7.5 0 1 0 15 0 a7.5 7.5 0 1 0 -15 0zM280.88 582.7 a7.5 7.5 0 1 0 15 0 a7.5 7.5 0 1 0 -15 0zM410.79 -17.3 a7.5 7.5 0 1 0 15 0 a7.5 7.5 0 1 0 -15 0zM475.75 20.2 a7.5 7.5 0 1 0 15 0 a7.5 7.5 0 1 0 -15 0zM475.75 95.2 a7.5 7.5 0 1 0 15 0 a7.5 7.5 0 1 0 -15 0zM345.84 20.2 a7.5 7.5 0 1 0 15 0 a7.5 7.5 0 1 0 -15 0zM410.79 432.7 a7.5 7.5 0 1 0 15 0 a7.5 7.5 0 1 0 -15 0zM475.75 470.2 a7.5 7.5 0 1 0 15 0 a7.5 7.5 0 1 0 -15 0zM475.75 545.2 a7.5 7.5 0 1 0 15 0 a7.5 7.5 0 1 0 -15 0zM410.79 582.7 a7.5 7.5 0 1 0 15 0 a7.5 7.5 0 1 0 -15 0zM540.7 432.7 a7.5 7.5 0 1 0 15 0 a7.5 7.5 0 1 0 -15 0zM605.65 470.2 a7.5 7.5 0 1 0 15 0 a7.5 7.5 0 1 0 -15 0zM605.65 545.2 a7.5 7.5 0 1 0 15 0 a7.5 7.5 0 1 0 -15 0zM540.7 582.7 a7.5 7.5 0 1 0 15 0 a7.5 7.5 0 1 0 -15 0zM865.47 95.2 a7.5 7.5 0 1 0 15 0 a7.5 7.5 0 1 0 -15 0zM930.42 132.7 a7.5 7.5 0 1 0 15 0 a7.5 7.5 0 1 0 -15 0zM930.42 207.7 a7.5 7.5 0 1 0 15 0 a7.5 7.5 0 1 0 -15 0zM865.47 245.2 a7.5 7.5 0 1 0 15 0 a7.5 7.5 0 1 0 -15 0zM800.51 207.7 a7.5 7.5 0 1 0 15 0 a7.5 7.5 0 1 0 -15 0zM800.51 132.7 a7.5 7.5 0 1 0 15 0 a7.5 7.5 0 1 0 -15 0zM865.47 545.2 a7.5 7.5 0 1 0 15 0 a7.5 7.5 0 1 0 -15 0zM930.42 582.7 a7.5 7.5 0 1 0 15 0 a7.5 7.5 0 1 0 -15 0zM930.42 657.7 a7.5 7.5 0 1 0 15 0 a7.5 7.5 0 1 0 -15 0zM865.47 695.2 a7.5 7.5 0 1 0 15 0 a7.5 7.5 0 1 0 -15 0zM800.51 657.7 a7.5 7.5 0 1 0 15 0 a7.5 7.5 0 1 0 -15 0zM800.51 582.7 a7.5 7.5 0 1 0 15 0 a7.5 7.5 0 1 0 -15 0zM1060.33 432.7 a7.5 7.5 0 1 0 15 0 a7.5 7.5 0 1 0 -15 0zM1125.28 470.2 a7.5 7.5 0 1 0 15 0 a7.5 7.5 0 1 0 -15 0zM1125.28 545.2 a7.5 7.5 0 1 0 15 0 a7.5 7.5 0 1 0 -15 0zM1060.33 582.7 a7.5 7.5 0 1 0 15 0 a7.5 7.5 0 1 0 -15 0zM995.38 545.2 a7.5 7.5 0 1 0 15 0 a7.5 7.5 0 1 0 -15 0zM995.38 470.2 a7.5 7.5 0 1 0 15 0 a7.5 7.5 0 1 0 -15 0zM1385.1 95.2 a7.5 7.5 0 1 0 15 0 a7.5 7.5 0 1 0 -15 0zM1450.05 132.7 a7.5 7.5 0 1 0 15 0 a7.5 7.5 0 1 0 -15 0zM1450.05 207.7 a7.5 7.5 0 1 0 15 0 a7.5 7.5 0 1 0 -15 0zM1385.1 245.2 a7.5 7.5 0 1 0 15 0 a7.5 7.5 0 1 0 -15 0zM1320.14 207.7 a7.5 7.5 0 1 0 15 0 a7.5 7.5 0 1 0 -15 0zM1320.14 132.7 a7.5 7.5 0 1 0 15 0 a7.5 7.5 0 1 0 -15 0zM1385.1 320.2 a7.5 7.5 0 1 0 15 0 a7.5 7.5 0 1 0 -15 0zM1320.14 357.7 a7.5 7.5 0 1 0 15 0 a7.5 7.5 0 1 0 -15 0zM1255.19 320.2 a7.5 7.5 0 1 0 15 0 a7.5 7.5 0 1 0 -15 0zM1255.19 245.2 a7.5 7.5 0 1 0 15 0 a7.5 7.5 0 1 0 -15 0zM1515.01 95.2 a7.5 7.5 0 1 0 15 0 a7.5 7.5 0 1 0 -15 0zM1579.96 132.7 a7.5 7.5 0 1 0 15 0 a7.5 7.5 0 1 0 -15 0zM1579.96 207.7 a7.5 7.5 0 1 0 15 0 a7.5 7.5 0 1 0 -15 0zM1515.01 245.2 a7.5 7.5 0 1 0 15 0 a7.5 7.5 0 1 0 -15 0zM1515.01 320.2 a7.5 7.5 0 1 0 15 0 a7.5 7.5 0 1 0 -15 0zM1579.96 357.7 a7.5 7.5 0 1 0 15 0 a7.5 7.5 0 1 0 -15 0zM1579.96 432.7 a7.5 7.5 0 1 0 15 0 a7.5 7.5 0 1 0 -15 0zM1515.01 470.2 a7.5 7.5 0 1 0 15 0 a7.5 7.5 0 1 0 -15 0zM1450.05 432.7 a7.5 7.5 0 1 0 15 0 a7.5 7.5 0 1 0 -15 0zM1450.05 357.7 a7.5 7.5 0 1 0 15 0 a7.5 7.5 0 1 0 -15 0z" fill="rgba(232, 90, 79, 1)"></path><path d="M136.26 127.85L179.57 152.85L179.57 202.85L136.26 227.85L92.96 202.85L92.96 152.85zM179.57 502.85L222.87 527.85L222.87 577.85L179.57 602.85L136.26 577.85L136.26 527.85zM266.17 202.85L309.48 227.85L309.48 277.85L266.17 302.85L222.87 277.85L222.87 227.85zM352.78 52.85L396.08 77.85L396.08 127.85L352.78 152.85L309.48 127.85L309.48 77.85zM352.78 352.85L396.08 377.85L396.08 427.85L352.78 452.85L309.48 427.85L309.48 377.85zM309.48 427.85L352.78 452.85L352.78 502.85L309.48 527.85L266.17 502.85L266.17 452.85zM352.78 502.85L396.08 527.85L396.08 577.85L352.78 602.85L309.48 577.85L309.48 527.85zM439.38 52.85L482.69 77.85L482.69 127.85L439.38 152.85L396.08 127.85L396.08 77.85zM439.38 352.85L482.69 377.85L482.69 427.85L439.38 452.85L396.08 427.85L396.08 377.85zM396.08 427.85L439.38 452.85L439.38 502.85L396.08 527.85L352.78 502.85L352.78 452.85zM439.38 502.85L482.69 527.85L482.69 577.85L439.38 602.85L396.08 577.85L396.08 527.85zM482.69 127.85L525.99 152.85L525.99 202.85L482.69 227.85L439.38 202.85L439.38 152.85zM482.69 427.85L525.99 452.85L525.99 502.85L482.69 527.85L439.38 502.85L439.38 452.85zM569.29 -22.15L612.59 2.85L612.59 52.85L569.29 77.85L525.99 52.85L525.99 2.85zM569.29 127.85L612.59 152.85L612.59 202.85L569.29 227.85L525.99 202.85L525.99 152.85zM612.59 502.85L655.89 527.85L655.89 577.85L612.59 602.85L569.29 577.85L569.29 527.85zM699.2 52.85L742.5 77.85L742.5 127.85L699.2 152.85L655.89 127.85L655.89 77.85zM655.89 127.85L699.2 152.85L699.2 202.85L655.89 227.85L612.59 202.85L612.59 152.85zM655.89 277.85L699.2 302.85L699.2 352.85L655.89 377.85L612.59 352.85L612.59 302.85zM785.8 52.85L829.11 77.85L829.11 127.85L785.8 152.85L742.5 127.85L742.5 77.85zM742.5 127.85L785.8 152.85L785.8 202.85L742.5 227.85L699.2 202.85L699.2 152.85zM742.5 277.85L785.8 302.85L785.8 352.85L742.5 377.85L699.2 352.85L699.2 302.85zM785.8 352.85L829.11 377.85L829.11 427.85L785.8 452.85L742.5 427.85L742.5 377.85zM785.8 502.85L829.11 527.85L829.11 577.85L785.8 602.85L742.5 577.85L742.5 527.85zM829.11 277.85L872.41 302.85L872.41 352.85L829.11 377.85L785.8 352.85L785.8 302.85zM872.41 352.85L915.71 377.85L915.71 427.85L872.41 452.85L829.11 427.85L829.11 377.85zM872.41 502.85L915.71 527.85L915.71 577.85L872.41 602.85L829.11 577.85L829.11 527.85zM915.71 -22.15L959.01 2.85L959.01 52.85L915.71 77.85L872.41 52.85L872.41 2.85zM915.71 127.85L959.01 152.85L959.01 202.85L915.71 227.85L872.41 202.85L872.41 152.85zM1002.32 127.85L1045.62 152.85L1045.62 202.85L1002.32 227.85L959.01 202.85L959.01 152.85zM1045.62 202.85L1088.92 227.85L1088.92 277.85L1045.62 302.85L1002.32 277.85L1002.32 227.85zM1045.62 502.85L1088.92 527.85L1088.92 577.85L1045.62 602.85L1002.32 577.85L1002.32 527.85zM1132.22 52.85L1175.53 77.85L1175.53 127.85L1132.22 152.85L1088.92 127.85L1088.92 77.85zM1132.22 202.85L1175.53 227.85L1175.53 277.85L1132.22 302.85L1088.92 277.85L1088.92 227.85zM1088.92 277.85L1132.22 302.85L1132.22 352.85L1088.92 377.85L1045.62 352.85L1045.62 302.85zM1132.22 352.85L1175.53 377.85L1175.53 427.85L1132.22 452.85L1088.92 427.85L1088.92 377.85zM1088.92 427.85L1132.22 452.85L1132.22 502.85L1088.92 527.85L1045.62 502.85L1045.62 452.85zM1175.53 127.85L1218.83 152.85L1218.83 202.85L1175.53 227.85L1132.22 202.85L1132.22 152.85zM1175.53 277.85L1218.83 302.85L1218.83 352.85L1175.53 377.85L1132.22 352.85L1132.22 302.85zM1175.53 427.85L1218.83 452.85L1218.83 502.85L1175.53 527.85L1132.22 502.85L1132.22 452.85zM1262.13 -22.15L1305.43 2.85L1305.43 52.85L1262.13 77.85L1218.83 52.85L1218.83 2.85zM1305.43 52.85L1348.74 77.85L1348.74 127.85L1305.43 152.85L1262.13 127.85L1262.13 77.85zM1305.43 202.85L1348.74 227.85L1348.74 277.85L1305.43 302.85L1262.13 277.85L1262.13 227.85zM1262.13 277.85L1305.43 302.85L1305.43 352.85L1262.13 377.85L1218.83 352.85L1218.83 302.85zM1305.43 352.85L1348.74 377.85L1348.74 427.85L1305.43 452.85L1262.13 427.85L1262.13 377.85zM1392.04 502.85L1435.34 527.85L1435.34 577.85L1392.04 602.85L1348.74 577.85L1348.74 527.85z" stroke="rgba(103, 109, 104, 1)" stroke-width="2"></path></g><defs><mask id="SvgjsMask1004"><rect width="1440" height="560" fill="#ffffff"></rect></mask></defs></svg>