<svg xmlns="http://www.w3.org/2000/svg" version="1.1" xmlns:xlink="http://www.w3.org/1999/xlink" xmlns:svgjs="http://svgjs.com/svgjs" width="1440" height="560" preserveAspectRatio="none" viewBox="0 0 1440 560"><g mask="url(&quot;#SvgjsMask1006&quot;)" fill="none"><path d="M-77.59 357.05L-77.59 357.05" stroke="rgba(111, 109, 104, 1)" stroke-width="1.5"></path><path d="M-77.59 357.05L-98.06 513.65" stroke="rgba(111, 109, 104, 1)" stroke-width="1.5"></path><path d="M-77.59 357.05L81 377.14" stroke="rgba(111, 109, 104, 1)" stroke-width="1.5"></path><path d="M-77.59 357.05L45.6 538.42" stroke="rgba(111, 109, 104, 1)" stroke-width="1.5"></path><path d="M-77.59 357.05L209 407.87" stroke="rgba(111, 109, 104, 1)" stroke-width="1.5"></path><path d="M-98.06 513.65L-98.06 513.65" stroke="rgba(111, 109, 104, 1)" stroke-width="1.5"></path><path d="M-98.06 513.65L45.6 538.42" stroke="rgba(111, 109, 104, 1)" stroke-width="1.5"></path><path d="M-106.13 692.89L-106.13 692.89" stroke="rgba(111, 109, 104, 1)" stroke-width="1.5"></path><path d="M-106.13 692.89L57.79 645.25" stroke="rgba(111, 109, 104, 1)" stroke-width="1.5"></path><path d="M-106.13 692.89L-98.06 513.65" stroke="rgba(111, 109, 104, 1)" stroke-width="1.5"></path><path d="M-106.13 692.89L45.6 538.42" stroke="rgba(111, 109, 104, 1)" stroke-width="1.5"></path><path d="M81 377.14L81 377.14" stroke="rgba(111, 109, 104, 1)" stroke-width="1.5"></path><path d="M81 377.14L209 407.87" stroke="rgba(111, 109, 104, 1)" stroke-width="1.5"></path><path d="M81 377.14L45.6 538.42" stroke="rgba(111, 109, 104, 1)" stroke-width="1.5"></path><path d="M81 377.14L-98.06 513.65" stroke="rgba(111, 109, 104, 1)" stroke-width="1.5"></path><path d="M81 377.14L256.62 520.62" stroke="rgba(111, 109, 104, 1)" stroke-width="1.5"></path><path d="M45.6 538.42L45.6 538.42" stroke="rgba(111, 109, 104, 1)" stroke-width="1.5"></path><path d="M45.6 538.42L57.79 645.25" stroke="rgba(111, 109, 104, 1)" stroke-width="1.5"></path><path d="M45.6 538.42L209 407.87" stroke="rgba(111, 109, 104, 1)" stroke-width="1.5"></path><path d="M45.6 538.42L256.62 520.62" stroke="rgba(111, 109, 104, 1)" stroke-width="1.5"></path><path d="M57.79 645.25L57.79 645.25" stroke="rgba(111, 109, 104, 1)" stroke-width="1.5"></path><path d="M57.79 645.25L-98.06 513.65" stroke="rgba(111, 109, 104, 1)" stroke-width="1.5"></path><path d="M57.79 645.25L256.62 520.62" stroke="rgba(111, 109, 104, 1)" stroke-width="1.5"></path><path d="M209 407.87L209 407.87" stroke="rgba(111, 109, 104, 1)" stroke-width="1.5"></path><path d="M209 407.87L256.62 520.62" stroke="rgba(111, 109, 104, 1)" stroke-width="1.5"></path><path d="M209 407.87L347 362.45" stroke="rgba(111, 109, 104, 1)" stroke-width="1.5"></path><path d="M256.62 520.62L256.62 520.62" stroke="rgba(111, 109, 104, 1)" stroke-width="1.5"></path><path d="M256.62 520.62L359.65 497.88" stroke="rgba(111, 109, 104, 1)" stroke-width="1.5"></path><path d="M256.62 520.62L351.07 646.44" stroke="rgba(111, 109, 104, 1)" stroke-width="1.5"></path><path d="M256.62 520.62L347 362.45" stroke="rgba(111, 109, 104, 1)" stroke-width="1.5"></path><path d="M347 362.45L347 362.45" stroke="rgba(111, 109, 104, 1)" stroke-width="1.5"></path><path d="M347 362.45L359.65 497.88" stroke="rgba(111, 109, 104, 1)" stroke-width="1.5"></path><path d="M359.65 497.88L359.65 497.88" stroke="rgba(111, 109, 104, 1)" stroke-width="1.5"></path><path d="M359.65 497.88L494.66 535.28" stroke="rgba(111, 109, 104, 1)" stroke-width="1.5"></path><path d="M359.65 497.88L351.07 646.44" stroke="rgba(111, 109, 104, 1)" stroke-width="1.5"></path><path d="M351.07 646.44L351.07 646.44" stroke="rgba(111, 109, 104, 1)" stroke-width="1.5"></path><path d="M351.07 646.44L494.66 535.28" stroke="rgba(111, 109, 104, 1)" stroke-width="1.5"></path><path d="M351.07 646.44L525.57 707.96" stroke="rgba(111, 109, 104, 1)" stroke-width="1.5"></path><path d="M493.18 380.69L493.18 380.69" stroke="rgba(111, 109, 104, 1)" stroke-width="1.5"></path><path d="M493.18 380.69L347 362.45" stroke="rgba(111, 109, 104, 1)" stroke-width="1.5"></path><path d="M493.18 380.69L494.66 535.28" stroke="rgba(111, 109, 104, 1)" stroke-width="1.5"></path><path d="M493.18 380.69L359.65 497.88" stroke="rgba(111, 109, 104, 1)" stroke-width="1.5"></path><path d="M493.18 380.69L675.46 351.4" stroke="rgba(111, 109, 104, 1)" stroke-width="1.5"></path><path d="M493.18 380.69L709.16 491.82" stroke="rgba(111, 109, 104, 1)" stroke-width="1.5"></path><path d="M494.66 535.28L494.66 535.28" stroke="rgba(111, 109, 104, 1)" stroke-width="1.5"></path><path d="M494.66 535.28L525.57 707.96" stroke="rgba(111, 109, 104, 1)" stroke-width="1.5"></path><path d="M525.57 707.96L525.57 707.96" stroke="rgba(111, 109, 104, 1)" stroke-width="1.5"></path><path d="M525.57 707.96L641.17 691.24" stroke="rgba(111, 109, 104, 1)" stroke-width="1.5"></path><path d="M675.46 351.4L675.46 351.4" stroke="rgba(111, 109, 104, 1)" stroke-width="1.5"></path><path d="M675.46 351.4L709.16 491.82" stroke="rgba(111, 109, 104, 1)" stroke-width="1.5"></path><path d="M675.46 351.4L839.1 349.94" stroke="rgba(111, 109, 104, 1)" stroke-width="1.5"></path><path d="M709.16 491.82L709.16 491.82" stroke="rgba(111, 109, 104, 1)" stroke-width="1.5"></path><path d="M709.16 491.82L840.18 555.01" stroke="rgba(111, 109, 104, 1)" stroke-width="1.5"></path><path d="M641.17 691.24L641.17 691.24" stroke="rgba(111, 109, 104, 1)" stroke-width="1.5"></path><path d="M641.17 691.24L845.8 658.52" stroke="rgba(111, 109, 104, 1)" stroke-width="1.5"></path><path d="M641.17 691.24L709.16 491.82" stroke="rgba(111, 109, 104, 1)" stroke-width="1.5"></path><path d="M641.17 691.24L494.66 535.28" stroke="rgba(111, 109, 104, 1)" stroke-width="1.5"></path><path d="M641.17 691.24L840.18 555.01" stroke="rgba(111, 109, 104, 1)" stroke-width="1.5"></path><path d="M641.17 691.24L351.07 646.44" stroke="rgba(111, 109, 104, 1)" stroke-width="1.5"></path><path d="M842.4 90.9L842.4 90.9" stroke="rgba(111, 109, 104, 1)" stroke-width="1.5"></path><path d="M842.4 90.9L855.5 203.86" stroke="rgba(111, 109, 104, 1)" stroke-width="1.5"></path><path d="M842.4 90.9L967.94 83.03" stroke="rgba(111, 109, 104, 1)" stroke-width="1.5"></path><path d="M842.4 90.9L989.14 235.89" stroke="rgba(111, 109, 104, 1)" stroke-width="1.5"></path><path d="M842.4 90.9L995.94 -48.19" stroke="rgba(111, 109, 104, 1)" stroke-width="1.5"></path><path d="M855.5 203.86L855.5 203.86" stroke="rgba(111, 109, 104, 1)" stroke-width="1.5"></path><path d="M855.5 203.86L989.14 235.89" stroke="rgba(111, 109, 104, 1)" stroke-width="1.5"></path><path d="M855.5 203.86L839.1 349.94" stroke="rgba(111, 109, 104, 1)" stroke-width="1.5"></path><path d="M855.5 203.86L967.94 83.03" stroke="rgba(111, 109, 104, 1)" stroke-width="1.5"></path><path d="M855.5 203.86L963.61 343.05" stroke="rgba(111, 109, 104, 1)" stroke-width="1.5"></path><path d="M855.5 203.86L675.46 351.4" stroke="rgba(111, 109, 104, 1)" stroke-width="1.5"></path><path d="M839.1 349.94L839.1 349.94" stroke="rgba(111, 109, 104, 1)" stroke-width="1.5"></path><path d="M839.1 349.94L963.61 343.05" stroke="rgba(111, 109, 104, 1)" stroke-width="1.5"></path><path d="M839.1 349.94L989.14 235.89" stroke="rgba(111, 109, 104, 1)" stroke-width="1.5"></path><path d="M839.1 349.94L709.16 491.82" stroke="rgba(111, 109, 104, 1)" stroke-width="1.5"></path><path d="M839.1 349.94L840.18 555.01" stroke="rgba(111, 109, 104, 1)" stroke-width="1.5"></path><path d="M840.18 555.01L840.18 555.01" stroke="rgba(111, 109, 104, 1)" stroke-width="1.5"></path><path d="M840.18 555.01L845.8 658.52" stroke="rgba(111, 109, 104, 1)" stroke-width="1.5"></path><path d="M840.18 555.01L982.28 539.76" stroke="rgba(111, 109, 104, 1)" stroke-width="1.5"></path><path d="M845.8 658.52L845.8 658.52" stroke="rgba(111, 109, 104, 1)" stroke-width="1.5"></path><path d="M845.8 658.52L940.58 667.6" stroke="rgba(111, 109, 104, 1)" stroke-width="1.5"></path><path d="M845.8 658.52L982.28 539.76" stroke="rgba(111, 109, 104, 1)" stroke-width="1.5"></path><path d="M995.94 -48.19L995.94 -48.19" stroke="rgba(111, 109, 104, 1)" stroke-width="1.5"></path><path d="M995.94 -48.19L1096.87 -84.55" stroke="rgba(111, 109, 104, 1)" stroke-width="1.5"></path><path d="M967.94 83.03L967.94 83.03" stroke="rgba(111, 109, 104, 1)" stroke-width="1.5"></path><path d="M967.94 83.03L995.94 -48.19" stroke="rgba(111, 109, 104, 1)" stroke-width="1.5"></path><path d="M967.94 83.03L989.14 235.89" stroke="rgba(111, 109, 104, 1)" stroke-width="1.5"></path><path d="M967.94 83.03L1118.73 44.68" stroke="rgba(111, 109, 104, 1)" stroke-width="1.5"></path><path d="M989.14 235.89L989.14 235.89" stroke="rgba(111, 109, 104, 1)" stroke-width="1.5"></path><path d="M989.14 235.89L1093.23 200.4" stroke="rgba(111, 109, 104, 1)" stroke-width="1.5"></path><path d="M989.14 235.89L963.61 343.05" stroke="rgba(111, 109, 104, 1)" stroke-width="1.5"></path><path d="M963.61 343.05L963.61 343.05" stroke="rgba(111, 109, 104, 1)" stroke-width="1.5"></path><path d="M982.28 539.76L982.28 539.76" stroke="rgba(111, 109, 104, 1)" stroke-width="1.5"></path><path d="M982.28 539.76L940.58 667.6" stroke="rgba(111, 109, 104, 1)" stroke-width="1.5"></path><path d="M982.28 539.76L1132.43 538.97" stroke="rgba(111, 109, 104, 1)" stroke-width="1.5"></path><path d="M940.58 667.6L940.58 667.6" stroke="rgba(111, 109, 104, 1)" stroke-width="1.5"></path><path d="M940.58 667.6L840.18 555.01" stroke="rgba(111, 109, 104, 1)" stroke-width="1.5"></path><path d="M940.58 667.6L1152.66 710.44" stroke="rgba(111, 109, 104, 1)" stroke-width="1.5"></path><path d="M940.58 667.6L1132.43 538.97" stroke="rgba(111, 109, 104, 1)" stroke-width="1.5"></path><path d="M1096.87 -84.55L1096.87 -84.55" stroke="rgba(111, 109, 104, 1)" stroke-width="1.5"></path><path d="M1096.87 -84.55L1118.73 44.68" stroke="rgba(111, 109, 104, 1)" stroke-width="1.5"></path><path d="M1096.87 -84.55L1250.99 -104.39" stroke="rgba(111, 109, 104, 1)" stroke-width="1.5"></path><path d="M1096.87 -84.55L967.94 83.03" stroke="rgba(111, 109, 104, 1)" stroke-width="1.5"></path><path d="M1096.87 -84.55L1243.43 80.03" stroke="rgba(111, 109, 104, 1)" stroke-width="1.5"></path><path d="M1118.73 44.68L1118.73 44.68" stroke="rgba(111, 109, 104, 1)" stroke-width="1.5"></path><path d="M1118.73 44.68L1243.43 80.03" stroke="rgba(111, 109, 104, 1)" stroke-width="1.5"></path><path d="M1093.23 200.4L1093.23 200.4" stroke="rgba(111, 109, 104, 1)" stroke-width="1.5"></path><path d="M1093.23 200.4L1118.73 44.68" stroke="rgba(111, 109, 104, 1)" stroke-width="1.5"></path><path d="M1093.23 200.4L967.94 83.03" stroke="rgba(111, 109, 104, 1)" stroke-width="1.5"></path><path d="M1093.23 200.4L1274.58 216.35" stroke="rgba(111, 109, 104, 1)" stroke-width="1.5"></path><path d="M1132.43 538.97L1132.43 538.97" stroke="rgba(111, 109, 104, 1)" stroke-width="1.5"></path><path d="M1132.43 538.97L1152.66 710.44" stroke="rgba(111, 109, 104, 1)" stroke-width="1.5"></path><path d="M1132.43 538.97L1263.21 690.82" stroke="rgba(111, 109, 104, 1)" stroke-width="1.5"></path><path d="M1152.66 710.44L1152.66 710.44" stroke="rgba(111, 109, 104, 1)" stroke-width="1.5"></path><path d="M1152.66 710.44L1263.21 690.82" stroke="rgba(111, 109, 104, 1)" stroke-width="1.5"></path><path d="M1152.66 710.44L982.28 539.76" stroke="rgba(111, 109, 104, 1)" stroke-width="1.5"></path><path d="M1250.99 -104.39L1250.99 -104.39" stroke="rgba(111, 109, 104, 1)" stroke-width="1.5"></path><path d="M1250.99 -104.39L1243.43 80.03" stroke="rgba(111, 109, 104, 1)" stroke-width="1.5"></path><path d="M1243.43 80.03L1243.43 80.03" stroke="rgba(111, 109, 104, 1)" stroke-width="1.5"></path><path d="M1243.43 80.03L1274.58 216.35" stroke="rgba(111, 109, 104, 1)" stroke-width="1.5"></path><path d="M1243.43 80.03L1409.39 44.11" stroke="rgba(111, 109, 104, 1)" stroke-width="1.5"></path><path d="M1274.58 216.35L1274.58 216.35" stroke="rgba(111, 109, 104, 1)" stroke-width="1.5"></path><path d="M1274.58 216.35L1405.7 195.65" stroke="rgba(111, 109, 104, 1)" stroke-width="1.5"></path><path d="M1274.58 216.35L1289.9 367.18" stroke="rgba(111, 109, 104, 1)" stroke-width="1.5"></path><path d="M1274.58 216.35L1396.83 346.32" stroke="rgba(111, 109, 104, 1)" stroke-width="1.5"></path><path d="M1274.58 216.35L1409.39 44.11" stroke="rgba(111, 109, 104, 1)" stroke-width="1.5"></path><path d="M1289.9 367.18L1289.9 367.18" stroke="rgba(111, 109, 104, 1)" stroke-width="1.5"></path><path d="M1289.9 367.18L1396.83 346.32" stroke="rgba(111, 109, 104, 1)" stroke-width="1.5"></path><path d="M1289.9 367.18L1405.7 195.65" stroke="rgba(111, 109, 104, 1)" stroke-width="1.5"></path><path d="M1289.9 367.18L1460.03 508.48" stroke="rgba(111, 109, 104, 1)" stroke-width="1.5"></path><path d="M1289.9 367.18L1132.43 538.97" stroke="rgba(111, 109, 104, 1)" stroke-width="1.5"></path><path d="M1289.9 367.18L1093.23 200.4" stroke="rgba(111, 109, 104, 1)" stroke-width="1.5"></path><path d="M1263.21 690.82L1263.21 690.82" stroke="rgba(111, 109, 104, 1)" stroke-width="1.5"></path><path d="M1263.21 690.82L1405.9 664.09" stroke="rgba(111, 109, 104, 1)" stroke-width="1.5"></path><path d="M1263.21 690.82L1460.03 508.48" stroke="rgba(111, 109, 104, 1)" stroke-width="1.5"></path><path d="M1263.21 690.82L982.28 539.76" stroke="rgba(111, 109, 104, 1)" stroke-width="1.5"></path><path d="M1263.21 690.82L940.58 667.6" stroke="rgba(111, 109, 104, 1)" stroke-width="1.5"></path><path d="M1445.61 -86.83L1445.61 -86.83" stroke="rgba(111, 109, 104, 1)" stroke-width="1.5"></path><path d="M1445.61 -86.83L1546.42 -61.5" stroke="rgba(111, 109, 104, 1)" stroke-width="1.5"></path><path d="M1445.61 -86.83L1409.39 44.11" stroke="rgba(111, 109, 104, 1)" stroke-width="1.5"></path><path d="M1445.61 -86.83L1250.99 -104.39" stroke="rgba(111, 109, 104, 1)" stroke-width="1.5"></path><path d="M1445.61 -86.83L1606.27 40.37" stroke="rgba(111, 109, 104, 1)" stroke-width="1.5"></path><path d="M1409.39 44.11L1409.39 44.11" stroke="rgba(111, 109, 104, 1)" stroke-width="1.5"></path><path d="M1409.39 44.11L1405.7 195.65" stroke="rgba(111, 109, 104, 1)" stroke-width="1.5"></path><path d="M1405.7 195.65L1405.7 195.65" stroke="rgba(111, 109, 104, 1)" stroke-width="1.5"></path><path d="M1405.7 195.65L1396.83 346.32" stroke="rgba(111, 109, 104, 1)" stroke-width="1.5"></path><path d="M1396.83 346.32L1396.83 346.32" stroke="rgba(111, 109, 104, 1)" stroke-width="1.5"></path><path d="M1460.03 508.48L1460.03 508.48" stroke="rgba(111, 109, 104, 1)" stroke-width="1.5"></path><path d="M1460.03 508.48L1577.2 487.69" stroke="rgba(111, 109, 104, 1)" stroke-width="1.5"></path><path d="M1460.03 508.48L1405.9 664.09" stroke="rgba(111, 109, 104, 1)" stroke-width="1.5"></path><path d="M1460.03 508.48L1396.83 346.32" stroke="rgba(111, 109, 104, 1)" stroke-width="1.5"></path><path d="M1460.03 508.48L1586.22 379.83" stroke="rgba(111, 109, 104, 1)" stroke-width="1.5"></path><path d="M1460.03 508.48L1593.89 690.5" stroke="rgba(111, 109, 104, 1)" stroke-width="1.5"></path><path d="M1405.9 664.09L1405.9 664.09" stroke="rgba(111, 109, 104, 1)" stroke-width="1.5"></path><path d="M1405.9 664.09L1593.89 690.5" stroke="rgba(111, 109, 104, 1)" stroke-width="1.5"></path><path d="M1546.42 -61.5L1546.42 -61.5" stroke="rgba(111, 109, 104, 1)" stroke-width="1.5"></path><path d="M1546.42 -61.5L1606.27 40.37" stroke="rgba(111, 109, 104, 1)" stroke-width="1.5"></path><path d="M1606.27 40.37L1606.27 40.37" stroke="rgba(111, 109, 104, 1)" stroke-width="1.5"></path><path d="M1606.27 40.37L1560.96 217.58" stroke="rgba(111, 109, 104, 1)" stroke-width="1.5"></path><path d="M1560.96 217.58L1560.96 217.58" stroke="rgba(111, 109, 104, 1)" stroke-width="1.5"></path><path d="M1560.96 217.58L1405.7 195.65" stroke="rgba(111, 109, 104, 1)" stroke-width="1.5"></path><path d="M1560.96 217.58L1586.22 379.83" stroke="rgba(111, 109, 104, 1)" stroke-width="1.5"></path><path d="M1560.96 217.58L1396.83 346.32" stroke="rgba(111, 109, 104, 1)" stroke-width="1.5"></path><path d="M1586.22 379.83L1586.22 379.83" stroke="rgba(111, 109, 104, 1)" stroke-width="1.5"></path><path d="M1586.22 379.83L1577.2 487.69" stroke="rgba(111, 109, 104, 1)" stroke-width="1.5"></path><path d="M1586.22 379.83L1396.83 346.32" stroke="rgba(111, 109, 104, 1)" stroke-width="1.5"></path><path d="M1586.22 379.83L1405.7 195.65" stroke="rgba(111, 109, 104, 1)" stroke-width="1.5"></path><path d="M1586.22 379.83L1289.9 367.18" stroke="rgba(111, 109, 104, 1)" stroke-width="1.5"></path><path d="M1577.2 487.69L1577.2 487.69" stroke="rgba(111, 109, 104, 1)" stroke-width="1.5"></path><path d="M1577.2 487.69L1593.89 690.5" stroke="rgba(111, 109, 104, 1)" stroke-width="1.5"></path><path d="M1593.89 690.5L1593.89 690.5" stroke="rgba(111, 109, 104, 1)" stroke-width="1.5"></path><circle r="5" cx="-77.59" cy="357.05" fill="rgba(111, 109, 104, 1)"></circle><circle r="5" cx="-98.06" cy="513.65" fill="rgba(111, 109, 104, 1)"></circle><circle r="5" cx="-106.13" cy="692.89" fill="rgba(111, 109, 104, 1)"></circle><circle r="5" cx="81" cy="377.14" fill="rgba(111, 109, 104, 1)"></circle><circle r="5" cx="45.6" cy="538.42" fill="rgba(111, 109, 104, 1)"></circle><circle r="5" cx="57.79" cy="645.25" fill="rgba(111, 109, 104, 1)"></circle><circle r="5" cx="209" cy="407.87" fill="rgba(111, 109, 104, 1)"></circle><circle r="5" cx="256.62" cy="520.62" fill="rgba(111, 109, 104, 1)"></circle><circle r="5" cx="347" cy="362.45" fill="rgba(111, 109, 104, 1)"></circle><circle r="5" cx="359.65" cy="497.88" fill="rgba(111, 109, 104, 1)"></circle><circle r="5" cx="351.07" cy="646.44" fill="rgba(111, 109, 104, 1)"></circle><circle r="5" cx="493.18" cy="380.69" fill="rgba(111, 109, 104, 1)"></circle><circle r="5" cx="494.66" cy="535.28" fill="rgba(111, 109, 104, 1)"></circle><circle r="5" cx="525.57" cy="707.96" fill="rgba(111, 109, 104, 1)"></circle><circle r="5" cx="675.46" cy="351.4" fill="rgba(111, 109, 104, 1)"></circle><circle r="5" cx="709.16" cy="491.82" fill="rgba(111, 109, 104, 1)"></circle><circle r="5" cx="641.17" cy="691.24" fill="rgba(111, 109, 104, 1)"></circle><circle r="5" cx="842.4" cy="90.9" fill="rgba(111, 109, 104, 1)"></circle><circle r="5" cx="855.5" cy="203.86" fill="rgba(111, 109, 104, 1)"></circle><circle r="5" cx="839.1" cy="349.94" fill="rgba(111, 109, 104, 1)"></circle><circle r="5" cx="840.18" cy="555.01" fill="rgba(111, 109, 104, 1)"></circle><circle r="5" cx="845.8" cy="658.52" fill="rgba(111, 109, 104, 1)"></circle><circle r="5" cx="995.94" cy="-48.19" fill="rgba(111, 109, 104, 1)"></circle><circle r="5" cx="967.94" cy="83.03" fill="rgba(111, 109, 104, 1)"></circle><circle r="5" cx="989.14" cy="235.89" fill="rgba(111, 109, 104, 1)"></circle><circle r="5" cx="963.61" cy="343.05" fill="rgba(111, 109, 104, 1)"></circle><circle r="5" cx="982.28" cy="539.76" fill="rgba(111, 109, 104, 1)"></circle><circle r="5" cx="940.58" cy="667.6" fill="rgba(111, 109, 104, 1)"></circle><circle r="5" cx="1096.87" cy="-84.55" fill="rgba(111, 109, 104, 1)"></circle><circle r="5" cx="1118.73" cy="44.68" fill="rgba(111, 109, 104, 1)"></circle><circle r="5" cx="1093.23" cy="200.4" fill="rgba(111, 109, 104, 1)"></circle><circle r="5" cx="1132.43" cy="538.97" fill="rgba(111, 109, 104, 1)"></circle><circle r="5" cx="1152.66" cy="710.44" fill="rgba(111, 109, 104, 1)"></circle><circle r="5" cx="1250.99" cy="-104.39" fill="rgba(111, 109, 104, 1)"></circle><circle r="5" cx="1243.43" cy="80.03" fill="rgba(111, 109, 104, 1)"></circle><circle r="5" cx="1274.58" cy="216.35" fill="rgba(111, 109, 104, 1)"></circle><circle r="5" cx="1289.9" cy="367.18" fill="rgba(111, 109, 104, 1)"></circle><circle r="5" cx="1263.21" cy="690.82" fill="rgba(111, 109, 104, 1)"></circle><circle r="5" cx="1445.61" cy="-86.83" fill="rgba(111, 109, 104, 1)"></circle><circle r="5" cx="1409.39" cy="44.11" fill="rgba(111, 109, 104, 1)"></circle><circle r="5" cx="1405.7" cy="195.65" fill="rgba(111, 109, 104, 1)"></circle><circle r="5" cx="1396.83" cy="346.32" fill="rgba(111, 109, 104, 1)"></circle><circle r="5" cx="1460.03" cy="508.48" fill="rgba(111, 109, 104, 1)"></circle><circle r="5" cx="1405.9" cy="664.09" fill="rgba(111, 109, 104, 1)"></circle><circle r="5" cx="1546.42" cy="-61.5" fill="rgba(111, 109, 104, 1)"></circle><circle r="5" cx="1606.27" cy="40.37" fill="rgba(111, 109, 104, 1)"></circle><circle r="5" cx="1560.96" cy="217.58" fill="rgba(111, 109, 104, 1)"></circle><circle r="5" cx="1586.22" cy="379.83" fill="rgba(111, 109, 104, 1)"></circle><circle r="5" cx="1577.2" cy="487.69" fill="rgba(111, 109, 104, 1)"></circle><circle r="5" cx="1593.89" cy="690.5" fill="rgba(111, 109, 104, 1)"></circle><path d="M233.76 529.19L233.76 529.19" stroke="hsl(4.300000000000011, 76.9%, 79.3%)" stroke-width="1.5"></path><path d="M233.76 529.19L347.45 508.66" stroke="hsl(4.300000000000011, 76.9%, 79.3%)" stroke-width="1.5"></path><path d="M233.76 529.19L211.72 662.94" stroke="hsl(4.300000000000011, 76.9%, 79.3%)" stroke-width="1.5"></path><path d="M233.76 529.19L101.82 561.4" stroke="hsl(4.300000000000011, 76.9%, 79.3%)" stroke-width="1.5"></path><path d="M233.76 529.19L358.7 663.59" stroke="hsl(4.300000000000011, 76.9%, 79.3%)" stroke-width="1.5"></path><path d="M347.45 508.66L347.45 508.66" stroke="hsl(4.300000000000011, 76.9%, 79.3%)" stroke-width="1.5"></path><path d="M347.45 508.66L358.7 663.59" stroke="hsl(4.300000000000011, 76.9%, 79.3%)" stroke-width="1.5"></path><path d="M358.7 663.59L358.7 663.59" stroke="hsl(4.300000000000011, 76.9%, 79.3%)" stroke-width="1.5"></path><path d="M358.7 663.59L211.72 662.94" stroke="hsl(4.300000000000011, 76.9%, 79.3%)" stroke-width="1.5"></path><path d="M358.7 663.59L522.25 696.39" stroke="hsl(4.300000000000011, 76.9%, 79.3%)" stroke-width="1.5"></path><path d="M810.65 376.84L810.65 376.84" stroke="hsl(4.300000000000011, 76.9%, 79.3%)" stroke-width="1.5"></path><path d="M810.65 376.84L690.68 407" stroke="hsl(4.300000000000011, 76.9%, 79.3%)" stroke-width="1.5"></path><path d="M810.65 376.84L971.74 371.45" stroke="hsl(4.300000000000011, 76.9%, 79.3%)" stroke-width="1.5"></path><path d="M810.65 376.84L823.16 547.96" stroke="hsl(4.300000000000011, 76.9%, 79.3%)" stroke-width="1.5"></path><path d="M810.65 376.84L944.5 535.65" stroke="hsl(4.300000000000011, 76.9%, 79.3%)" stroke-width="1.5"></path><path d="M810.65 376.84L659.09 537.63" stroke="hsl(4.300000000000011, 76.9%, 79.3%)" stroke-width="1.5"></path><path d="M823.16 547.96L823.16 547.96" stroke="hsl(4.300000000000011, 76.9%, 79.3%)" stroke-width="1.5"></path><path d="M823.16 547.96L831.97 667.59" stroke="hsl(4.300000000000011, 76.9%, 79.3%)" stroke-width="1.5"></path><path d="M823.16 547.96L944.5 535.65" stroke="hsl(4.300000000000011, 76.9%, 79.3%)" stroke-width="1.5"></path><path d="M823.16 547.96L659.09 537.63" stroke="hsl(4.300000000000011, 76.9%, 79.3%)" stroke-width="1.5"></path><path d="M944.5 535.65L944.5 535.65" stroke="hsl(4.300000000000011, 76.9%, 79.3%)" stroke-width="1.5"></path><path d="M944.5 535.65L998.61 691.64" stroke="hsl(4.300000000000011, 76.9%, 79.3%)" stroke-width="1.5"></path><path d="M1243.56 558.83L1243.56 558.83" stroke="hsl(4.300000000000011, 76.9%, 79.3%)" stroke-width="1.5"></path><path d="M1243.56 558.83L1240.34 656.38" stroke="hsl(4.300000000000011, 76.9%, 79.3%)" stroke-width="1.5"></path><path d="M1243.56 558.83L1133.08 554.62" stroke="hsl(4.300000000000011, 76.9%, 79.3%)" stroke-width="1.5"></path><path d="M1240.34 656.38L1240.34 656.38" stroke="hsl(4.300000000000011, 76.9%, 79.3%)" stroke-width="1.5"></path><path d="M1240.34 656.38L1161.44 667.98" stroke="hsl(4.300000000000011, 76.9%, 79.3%)" stroke-width="1.5"></path><path d="M1240.34 656.38L1133.08 554.62" stroke="hsl(4.300000000000011, 76.9%, 79.3%)" stroke-width="1.5"></path><path d="M1240.34 656.38L1421.24 683.21" stroke="hsl(4.300000000000011, 76.9%, 79.3%)" stroke-width="1.5"></path><path d="M1240.34 656.38L1394.92 551.92" stroke="hsl(4.300000000000011, 76.9%, 79.3%)" stroke-width="1.5"></path><path d="M1240.34 656.38L998.61 691.64" stroke="hsl(4.300000000000011, 76.9%, 79.3%)" stroke-width="1.5"></path><path d="M-101.82 556.09L-101.82 556.09" stroke="hsl(4.300000000000011, 76.9%, 79.3%)" stroke-width="1.5"></path><path d="M-101.82 556.09L-87.48 707.12" stroke="hsl(4.300000000000011, 76.9%, 79.3%)" stroke-width="1.5"></path><path d="M-101.82 556.09L101.82 561.4" stroke="hsl(4.300000000000011, 76.9%, 79.3%)" stroke-width="1.5"></path><path d="M-101.82 556.09L82.73 646.48" stroke="hsl(4.300000000000011, 76.9%, 79.3%)" stroke-width="1.5"></path><path d="M-101.82 556.09L211.72 662.94" stroke="hsl(4.300000000000011, 76.9%, 79.3%)" stroke-width="1.5"></path><path d="M-87.48 707.12L-87.48 707.12" stroke="hsl(4.300000000000011, 76.9%, 79.3%)" stroke-width="1.5"></path><path d="M-87.48 707.12L82.73 646.48" stroke="hsl(4.300000000000011, 76.9%, 79.3%)" stroke-width="1.5"></path><path d="M-87.48 707.12L101.82 561.4" stroke="hsl(4.300000000000011, 76.9%, 79.3%)" stroke-width="1.5"></path><path d="M101.82 561.4L101.82 561.4" stroke="hsl(4.300000000000011, 76.9%, 79.3%)" stroke-width="1.5"></path><path d="M101.82 561.4L82.73 646.48" stroke="hsl(4.300000000000011, 76.9%, 79.3%)" stroke-width="1.5"></path><path d="M101.82 561.4L211.72 662.94" stroke="hsl(4.300000000000011, 76.9%, 79.3%)" stroke-width="1.5"></path><path d="M82.73 646.48L82.73 646.48" stroke="hsl(4.300000000000011, 76.9%, 79.3%)" stroke-width="1.5"></path><path d="M82.73 646.48L211.72 662.94" stroke="hsl(4.300000000000011, 76.9%, 79.3%)" stroke-width="1.5"></path><path d="M82.73 646.48L233.76 529.19" stroke="hsl(4.300000000000011, 76.9%, 79.3%)" stroke-width="1.5"></path><path d="M211.72 662.94L211.72 662.94" stroke="hsl(4.300000000000011, 76.9%, 79.3%)" stroke-width="1.5"></path><path d="M522.25 696.39L522.25 696.39" stroke="hsl(4.300000000000011, 76.9%, 79.3%)" stroke-width="1.5"></path><path d="M522.25 696.39L700.38 662.85" stroke="hsl(4.300000000000011, 76.9%, 79.3%)" stroke-width="1.5"></path><path d="M522.25 696.39L659.09 537.63" stroke="hsl(4.300000000000011, 76.9%, 79.3%)" stroke-width="1.5"></path><path d="M522.25 696.39L347.45 508.66" stroke="hsl(4.300000000000011, 76.9%, 79.3%)" stroke-width="1.5"></path><path d="M690.68 407L690.68 407" stroke="hsl(4.300000000000011, 76.9%, 79.3%)" stroke-width="1.5"></path><path d="M690.68 407L659.09 537.63" stroke="hsl(4.300000000000011, 76.9%, 79.3%)" stroke-width="1.5"></path><path d="M690.68 407L823.16 547.96" stroke="hsl(4.300000000000011, 76.9%, 79.3%)" stroke-width="1.5"></path><path d="M690.68 407L700.38 662.85" stroke="hsl(4.300000000000011, 76.9%, 79.3%)" stroke-width="1.5"></path><path d="M659.09 537.63L659.09 537.63" stroke="hsl(4.300000000000011, 76.9%, 79.3%)" stroke-width="1.5"></path><path d="M659.09 537.63L700.38 662.85" stroke="hsl(4.300000000000011, 76.9%, 79.3%)" stroke-width="1.5"></path><path d="M659.09 537.63L831.97 667.59" stroke="hsl(4.300000000000011, 76.9%, 79.3%)" stroke-width="1.5"></path><path d="M700.38 662.85L700.38 662.85" stroke="hsl(4.300000000000011, 76.9%, 79.3%)" stroke-width="1.5"></path><path d="M700.38 662.85L831.97 667.59" stroke="hsl(4.300000000000011, 76.9%, 79.3%)" stroke-width="1.5"></path><path d="M700.38 662.85L823.16 547.96" stroke="hsl(4.300000000000011, 76.9%, 79.3%)" stroke-width="1.5"></path><path d="M831.97 667.59L831.97 667.59" stroke="hsl(4.300000000000011, 76.9%, 79.3%)" stroke-width="1.5"></path><path d="M971.74 371.45L971.74 371.45" stroke="hsl(4.300000000000011, 76.9%, 79.3%)" stroke-width="1.5"></path><path d="M971.74 371.45L1124.11 408" stroke="hsl(4.300000000000011, 76.9%, 79.3%)" stroke-width="1.5"></path><path d="M971.74 371.45L944.5 535.65" stroke="hsl(4.300000000000011, 76.9%, 79.3%)" stroke-width="1.5"></path><path d="M971.74 371.45L1162.15 243.52" stroke="hsl(4.300000000000011, 76.9%, 79.3%)" stroke-width="1.5"></path><path d="M971.74 371.45L823.16 547.96" stroke="hsl(4.300000000000011, 76.9%, 79.3%)" stroke-width="1.5"></path><path d="M998.61 691.64L998.61 691.64" stroke="hsl(4.300000000000011, 76.9%, 79.3%)" stroke-width="1.5"></path><path d="M998.61 691.64L1161.44 667.98" stroke="hsl(4.300000000000011, 76.9%, 79.3%)" stroke-width="1.5"></path><path d="M1162.15 243.52L1162.15 243.52" stroke="hsl(4.300000000000011, 76.9%, 79.3%)" stroke-width="1.5"></path><path d="M1162.15 243.52L1261.87 258.16" stroke="hsl(4.300000000000011, 76.9%, 79.3%)" stroke-width="1.5"></path><path d="M1162.15 243.52L1266.5 348.97" stroke="hsl(4.300000000000011, 76.9%, 79.3%)" stroke-width="1.5"></path><path d="M1162.15 243.52L1124.11 408" stroke="hsl(4.300000000000011, 76.9%, 79.3%)" stroke-width="1.5"></path><path d="M1162.15 243.52L1250.44 66.09" stroke="hsl(4.300000000000011, 76.9%, 79.3%)" stroke-width="1.5"></path><path d="M1124.11 408L1124.11 408" stroke="hsl(4.300000000000011, 76.9%, 79.3%)" stroke-width="1.5"></path><path d="M1124.11 408L1133.08 554.62" stroke="hsl(4.300000000000011, 76.9%, 79.3%)" stroke-width="1.5"></path><path d="M1124.11 408L1266.5 348.97" stroke="hsl(4.300000000000011, 76.9%, 79.3%)" stroke-width="1.5"></path><path d="M1124.11 408L1243.56 558.83" stroke="hsl(4.300000000000011, 76.9%, 79.3%)" stroke-width="1.5"></path><path d="M1133.08 554.62L1133.08 554.62" stroke="hsl(4.300000000000011, 76.9%, 79.3%)" stroke-width="1.5"></path><path d="M1133.08 554.62L1161.44 667.98" stroke="hsl(4.300000000000011, 76.9%, 79.3%)" stroke-width="1.5"></path><path d="M1161.44 667.98L1161.44 667.98" stroke="hsl(4.300000000000011, 76.9%, 79.3%)" stroke-width="1.5"></path><path d="M1161.44 667.98L1243.56 558.83" stroke="hsl(4.300000000000011, 76.9%, 79.3%)" stroke-width="1.5"></path><path d="M1161.44 667.98L944.5 535.65" stroke="hsl(4.300000000000011, 76.9%, 79.3%)" stroke-width="1.5"></path><path d="M1161.44 667.98L1421.24 683.21" stroke="hsl(4.300000000000011, 76.9%, 79.3%)" stroke-width="1.5"></path><path d="M1266.73 -57.55L1266.73 -57.55" stroke="hsl(4.300000000000011, 76.9%, 79.3%)" stroke-width="1.5"></path><path d="M1266.73 -57.55L1250.44 66.09" stroke="hsl(4.300000000000011, 76.9%, 79.3%)" stroke-width="1.5"></path><path d="M1266.73 -57.55L1448.68 -42.93" stroke="hsl(4.300000000000011, 76.9%, 79.3%)" stroke-width="1.5"></path><path d="M1266.73 -57.55L1407.92 108.19" stroke="hsl(4.300000000000011, 76.9%, 79.3%)" stroke-width="1.5"></path><path d="M1266.73 -57.55L1563.49 -98.11" stroke="hsl(4.300000000000011, 76.9%, 79.3%)" stroke-width="1.5"></path><path d="M1266.73 -57.55L1261.87 258.16" stroke="hsl(4.300000000000011, 76.9%, 79.3%)" stroke-width="1.5"></path><path d="M1250.44 66.09L1250.44 66.09" stroke="hsl(4.300000000000011, 76.9%, 79.3%)" stroke-width="1.5"></path><path d="M1250.44 66.09L1407.92 108.19" stroke="hsl(4.300000000000011, 76.9%, 79.3%)" stroke-width="1.5"></path><path d="M1250.44 66.09L1261.87 258.16" stroke="hsl(4.300000000000011, 76.9%, 79.3%)" stroke-width="1.5"></path><path d="M1250.44 66.09L1448.68 -42.93" stroke="hsl(4.300000000000011, 76.9%, 79.3%)" stroke-width="1.5"></path><path d="M1261.87 258.16L1261.87 258.16" stroke="hsl(4.300000000000011, 76.9%, 79.3%)" stroke-width="1.5"></path><path d="M1261.87 258.16L1266.5 348.97" stroke="hsl(4.300000000000011, 76.9%, 79.3%)" stroke-width="1.5"></path><path d="M1261.87 258.16L1395.76 387.81" stroke="hsl(4.300000000000011, 76.9%, 79.3%)" stroke-width="1.5"></path><path d="M1266.5 348.97L1266.5 348.97" stroke="hsl(4.300000000000011, 76.9%, 79.3%)" stroke-width="1.5"></path><path d="M1266.5 348.97L1395.76 387.81" stroke="hsl(4.300000000000011, 76.9%, 79.3%)" stroke-width="1.5"></path><path d="M1448.68 -42.93L1448.68 -42.93" stroke="hsl(4.300000000000011, 76.9%, 79.3%)" stroke-width="1.5"></path><path d="M1448.68 -42.93L1563.49 -98.11" stroke="hsl(4.300000000000011, 76.9%, 79.3%)" stroke-width="1.5"></path><path d="M1448.68 -42.93L1407.92 108.19" stroke="hsl(4.300000000000011, 76.9%, 79.3%)" stroke-width="1.5"></path><path d="M1448.68 -42.93L1558.78 69.49" stroke="hsl(4.300000000000011, 76.9%, 79.3%)" stroke-width="1.5"></path><path d="M1407.92 108.19L1407.92 108.19" stroke="hsl(4.300000000000011, 76.9%, 79.3%)" stroke-width="1.5"></path><path d="M1407.92 108.19L1558.78 69.49" stroke="hsl(4.300000000000011, 76.9%, 79.3%)" stroke-width="1.5"></path><path d="M1395.76 387.81L1395.76 387.81" stroke="hsl(4.300000000000011, 76.9%, 79.3%)" stroke-width="1.5"></path><path d="M1395.76 387.81L1394.92 551.92" stroke="hsl(4.300000000000011, 76.9%, 79.3%)" stroke-width="1.5"></path><path d="M1394.92 551.92L1394.92 551.92" stroke="hsl(4.300000000000011, 76.9%, 79.3%)" stroke-width="1.5"></path><path d="M1394.92 551.92L1421.24 683.21" stroke="hsl(4.300000000000011, 76.9%, 79.3%)" stroke-width="1.5"></path><path d="M1394.92 551.92L1243.56 558.83" stroke="hsl(4.300000000000011, 76.9%, 79.3%)" stroke-width="1.5"></path><path d="M1421.24 683.21L1421.24 683.21" stroke="hsl(4.300000000000011, 76.9%, 79.3%)" stroke-width="1.5"></path><path d="M1421.24 683.21L1553.2 712.45" stroke="hsl(4.300000000000011, 76.9%, 79.3%)" stroke-width="1.5"></path><path d="M1421.24 683.21L1243.56 558.83" stroke="hsl(4.300000000000011, 76.9%, 79.3%)" stroke-width="1.5"></path><path d="M1421.24 683.21L1579.66 496.74" stroke="hsl(4.300000000000011, 76.9%, 79.3%)" stroke-width="1.5"></path><path d="M1563.49 -98.11L1563.49 -98.11" stroke="hsl(4.300000000000011, 76.9%, 79.3%)" stroke-width="1.5"></path><path d="M1563.49 -98.11L1558.78 69.49" stroke="hsl(4.300000000000011, 76.9%, 79.3%)" stroke-width="1.5"></path><path d="M1563.49 -98.11L1407.92 108.19" stroke="hsl(4.300000000000011, 76.9%, 79.3%)" stroke-width="1.5"></path><path d="M1563.49 -98.11L1599.91 214.72" stroke="hsl(4.300000000000011, 76.9%, 79.3%)" stroke-width="1.5"></path><path d="M1558.78 69.49L1558.78 69.49" stroke="hsl(4.300000000000011, 76.9%, 79.3%)" stroke-width="1.5"></path><path d="M1558.78 69.49L1599.91 214.72" stroke="hsl(4.300000000000011, 76.9%, 79.3%)" stroke-width="1.5"></path><path d="M1599.91 214.72L1599.91 214.72" stroke="hsl(4.300000000000011, 76.9%, 79.3%)" stroke-width="1.5"></path><path d="M1599.91 214.72L1605.65 344.74" stroke="hsl(4.300000000000011, 76.9%, 79.3%)" stroke-width="1.5"></path><path d="M1599.91 214.72L1407.92 108.19" stroke="hsl(4.300000000000011, 76.9%, 79.3%)" stroke-width="1.5"></path><path d="M1599.91 214.72L1395.76 387.81" stroke="hsl(4.300000000000011, 76.9%, 79.3%)" stroke-width="1.5"></path><path d="M1599.91 214.72L1579.66 496.74" stroke="hsl(4.300000000000011, 76.9%, 79.3%)" stroke-width="1.5"></path><path d="M1599.91 214.72L1448.68 -42.93" stroke="hsl(4.300000000000011, 76.9%, 79.3%)" stroke-width="1.5"></path><path d="M1605.65 344.74L1605.65 344.74" stroke="hsl(4.300000000000011, 76.9%, 79.3%)" stroke-width="1.5"></path><path d="M1605.65 344.74L1579.66 496.74" stroke="hsl(4.300000000000011, 76.9%, 79.3%)" stroke-width="1.5"></path><path d="M1579.66 496.74L1579.66 496.74" stroke="hsl(4.300000000000011, 76.9%, 79.3%)" stroke-width="1.5"></path><path d="M1579.66 496.74L1394.92 551.92" stroke="hsl(4.300000000000011, 76.9%, 79.3%)" stroke-width="1.5"></path><path d="M1579.66 496.74L1395.76 387.81" stroke="hsl(4.300000000000011, 76.9%, 79.3%)" stroke-width="1.5"></path><path d="M1579.66 496.74L1553.2 712.45" stroke="hsl(4.300000000000011, 76.9%, 79.3%)" stroke-width="1.5"></path><path d="M1553.2 712.45L1553.2 712.45" stroke="hsl(4.300000000000011, 76.9%, 79.3%)" stroke-width="1.5"></path><path d="M1553.2 712.45L1394.92 551.92" stroke="hsl(4.300000000000011, 76.9%, 79.3%)" stroke-width="1.5"></path><path d="M1553.2 712.45L1240.34 656.38" stroke="hsl(4.300000000000011, 76.9%, 79.3%)" stroke-width="1.5"></path><path d="M1553.2 712.45L1243.56 558.83" stroke="hsl(4.300000000000011, 76.9%, 79.3%)" stroke-width="1.5"></path><circle r="25" cx="233.76" cy="529.19" fill="url(#SvgjsRadialGradient1007)"></circle><circle r="25" cx="347.45" cy="508.66" fill="url(#SvgjsRadialGradient1007)"></circle><circle r="25" cx="358.7" cy="663.59" fill="url(#SvgjsRadialGradient1007)"></circle><circle r="25" cx="810.65" cy="376.84" fill="url(#SvgjsRadialGradient1007)"></circle><circle r="25" cx="823.16" cy="547.96" fill="url(#SvgjsRadialGradient1007)"></circle><circle r="25" cx="944.5" cy="535.65" fill="url(#SvgjsRadialGradient1007)"></circle><circle r="25" cx="1243.56" cy="558.83" fill="url(#SvgjsRadialGradient1007)"></circle><circle r="25" cx="1240.34" cy="656.38" fill="url(#SvgjsRadialGradient1007)"></circle><circle r="5" cx="-101.82" cy="556.09" fill="#f4ada7"></circle><circle r="5" cx="-87.48" cy="707.12" fill="#f4ada7"></circle><circle r="5" cx="101.82" cy="561.4" fill="#f4ada7"></circle><circle r="5" cx="82.73" cy="646.48" fill="#f4ada7"></circle><circle r="5" cx="211.72" cy="662.94" fill="#f4ada7"></circle><circle r="5" cx="522.25" cy="696.39" fill="#f4ada7"></circle><circle r="5" cx="690.68" cy="407" fill="#f4ada7"></circle><circle r="5" cx="659.09" cy="537.63" fill="#f4ada7"></circle><circle r="5" cx="700.38" cy="662.85" fill="#f4ada7"></circle><circle r="5" cx="831.97" cy="667.59" fill="#f4ada7"></circle><circle r="5" cx="971.74" cy="371.45" fill="#f4ada7"></circle><circle r="5" cx="998.61" cy="691.64" fill="#f4ada7"></circle><circle r="5" cx="1162.15" cy="243.52" fill="#f4ada7"></circle><circle r="5" cx="1124.11" cy="408" fill="#f4ada7"></circle><circle r="5" cx="1133.08" cy="554.62" fill="#f4ada7"></circle><circle r="5" cx="1161.44" cy="667.98" fill="#f4ada7"></circle><circle r="5" cx="1266.73" cy="-57.55" fill="#f4ada7"></circle><circle r="5" cx="1250.44" cy="66.09" fill="#f4ada7"></circle><circle r="5" cx="1261.87" cy="258.16" fill="#f4ada7"></circle><circle r="5" cx="1266.5" cy="348.97" fill="#f4ada7"></circle><circle r="5" cx="1448.68" cy="-42.93" fill="#f4ada7"></circle><circle r="5" cx="1407.92" cy="108.19" fill="#f4ada7"></circle><circle r="5" cx="1395.76" cy="387.81" fill="#f4ada7"></circle><circle r="5" cx="1394.92" cy="551.92" fill="#f4ada7"></circle><circle r="5" cx="1421.24" cy="683.21" fill="#f4ada7"></circle><circle r="5" cx="1563.49" cy="-98.11" fill="#f4ada7"></circle><circle r="5" cx="1558.78" cy="69.49" fill="#f4ada7"></circle><circle r="5" cx="1599.91" cy="214.72" fill="#f4ada7"></circle><circle r="5" cx="1605.65" cy="344.74" fill="#f4ada7"></circle><circle r="5" cx="1579.66" cy="496.74" fill="#f4ada7"></circle><circle r="5" cx="1553.2" cy="712.45" fill="#f4ada7"></circle></g><defs><mask id="SvgjsMask1006"><rect width="1440" height="560" fill="#ffffff"></rect></mask><radialGradient id="SvgjsRadialGradient1007"><stop stop-color="#ffffff" offset="0.1"></stop><stop stop-color="rgba(232, 90, 79, 1)" offset="0.2"></stop><stop stop-color="rgba(232, 90, 79, 0)" offset="1"></stop></radialGradient></defs></svg>